<svg width="330" height="330" xmlns="http://www.w3.org/2000/svg" xmlns:xlink="http://www.w3.org/1999/xlink" xml:space="preserve" overflow="hidden"><defs><clipPath id="clip0"><rect x="1064" y="558" width="330" height="330"/></clipPath></defs><g clip-path="url(#clip0)" transform="translate(-1064 -558)"><path d="M1064 723C1064 631.873 1137.87 558 1229 558 1320.13 558 1394 631.873 1394 723 1394 814.127 1320.13 888 1229 888 1137.87 888 1064 814.127 1064 723Z" fill-rule="evenodd"/><path d="M1130 666 1152.88 666 1152.88 710.459 1204.96 710.459 1204.96 666 1228 666 1228 779 1204.96 779 1204.96 730.373 1152.88 730.373 1152.88 779 1130 779 1130 666Z" fill="#FFFFFF" fill-rule="evenodd"/><path d="M1255 666 1331.24 666 1331.24 685.45 1278.18 685.45 1278.18 712.003 1325.65 712.003 1325.65 731.299 1278.18 731.299 1278.18 759.395 1333 759.395 1333 779 1255 779 1255 666Z" fill="#FFFFFF" fill-rule="evenodd"/></g></svg>